<svg width="14" height="15" viewBox="0 0 14 15" fill="none" xmlns="http://www.w3.org/2000/svg">
<path d="M3.41406 8.657L7.36406 12.607C7.54171 12.7965 7.63869 13.0476 7.63448 13.3073C7.63026 13.567 7.52518 13.8148 7.34146 13.9984C7.15775 14.182 6.90982 14.2869 6.65014 14.2909C6.39045 14.2949 6.13938 14.1978 5.95006 14.02L0.293058 8.364C0.199873 8.27135 0.125924 8.16119 0.0754624 8.03985C0.0250011 7.91852 -0.000976563 7.78841 -0.000976562 7.657C-0.000976562 7.52559 0.0250011 7.39548 0.0754624 7.27415C0.125924 7.15281 0.199873 7.04265 0.293058 6.95L5.95006 1.293C6.0423 1.19749 6.15265 1.12131 6.27465 1.0689C6.39666 1.01649 6.52788 0.988904 6.66066 0.987751C6.79344 0.986597 6.92512 1.0119 7.04801 1.06218C7.17091 1.11246 7.28256 1.18671 7.37645 1.28061C7.47035 1.3745 7.5446 1.48615 7.59488 1.60905C7.64516 1.73194 7.67046 1.86362 7.66931 1.9964C7.66815 2.12918 7.64057 2.2604 7.58816 2.38241C7.53575 2.50441 7.45957 2.61475 7.36406 2.707L3.41406 6.657H13.0001C13.2653 6.657 13.5196 6.76236 13.7072 6.94989C13.8947 7.13743 14.0001 7.39178 14.0001 7.657C14.0001 7.92222 13.8947 8.17657 13.7072 8.36411C13.5196 8.55164 13.2653 8.657 13.0001 8.657H3.41406Z" fill="black"/>
</svg>
