<svg width="32" height="32" viewBox="0 0 32 32" fill="none" xmlns="http://www.w3.org/2000/svg">
<path d="M5.33317 28H26.6665C28.1393 28 29.3332 26.8061 29.3332 25.3333V11.4667C29.3332 9.99391 28.1393 8.8 26.6665 8.8H22.6665L19.3332 4H12.6665L9.33317 8.8H5.33317C3.86041 8.8 2.6665 9.99391 2.6665 11.4667V25.3333C2.6665 26.8061 3.86041 28 5.33317 28Z" stroke="white" stroke-width="2" stroke-linecap="round" stroke-linejoin="round"/>
<path d="M15.9998 22.6667C18.9454 22.6667 21.3332 20.2789 21.3332 17.3333C21.3332 14.3878 18.9454 12 15.9998 12C13.0543 12 10.6665 14.3878 10.6665 17.3333C10.6665 20.2789 13.0543 22.6667 15.9998 22.6667Z" stroke="white" stroke-width="2" stroke-linecap="round" stroke-linejoin="round"/>
</svg>
